<?xml version="1.0" encoding="UTF-8"?>
<svg xmlns="http://www.w3.org/2000/svg" xmlns:xlink="http://www.w3.org/1999/xlink" width="30pt" height="30.000001pt" viewBox="0 0 30 30.000001" version="1.2">
<defs>
<clipPath id="clip1">
  <path d="M 0.484375 0 L 29.515625 0 L 29.515625 29.03125 L 0.484375 29.03125 Z M 0.484375 0 "/>
</clipPath>
</defs>
<g id="surface1">
<g clip-path="url(#clip1)" clip-rule="nonzero">
<path style=" stroke:none;fill-rule:nonzero;fill:rgb(13.729858%,23.919678%,100%);fill-opacity:1;" d="M 15 0 C 6.984375 0 0.484375 6.5 0.484375 14.515625 C 0.484375 22.535156 6.984375 29.03125 15 29.03125 C 23.015625 29.03125 29.515625 22.535156 29.515625 14.515625 C 29.515625 6.5 23.015625 0 15 0 Z M 14.988281 20.511719 C 12.558594 20.511719 10.886719 19.226562 10.734375 17.25 L 12.179688 17.25 C 12.355469 18.449219 13.496094 19.210938 15.125 19.210938 C 16.664062 19.210938 17.796875 18.378906 17.796875 17.242188 C 17.796875 16.265625 17.082031 15.648438 15.503906 15.25 L 14.035156 14.871094 C 11.964844 14.347656 11.066406 13.410156 11.066406 11.78125 C 11.066406 9.839844 12.695312 8.519531 15.117188 8.519531 C 17.328125 8.519531 18.980469 9.839844 19.097656 11.6875 L 17.664062 11.6875 C 17.464844 10.511719 16.496094 9.8125 15.066406 9.8125 C 13.542969 9.8125 12.535156 10.574219 12.535156 11.734375 C 12.535156 12.632812 13.164062 13.148438 14.742188 13.550781 L 15.941406 13.871094 C 18.3125 14.464844 19.265625 15.386719 19.265625 17.070312 C 19.265625 19.171875 17.605469 20.511719 14.988281 20.511719 Z M 14.988281 20.511719 "/>
</g>
</g>
</svg>
